<svg xmlns="http://www.w3.org/2000/svg" xmlns:xlink="http://www.w3.org/1999/xlink" width="80px" height="80px" viewBox="0 0 80 80"><title>icon-prep</title><desc>Created with Sketch.</desc><g id="icon-prep" stroke="none" stroke-width="1" fill="none" fill-rule="evenodd"><path d="M50.5953985,75.558404 C53.9020366,74.5593212 57.0653141,73.0945108 59.9969231,71.1900826 C60.6589011,70.7596694 61.5437363,70.9496419 61.9727473,71.6134435 C62.4017582,72.2774656 62.2125275,73.1645179 61.5505495,73.5947107 C55.0997802,77.785124 47.6096703,80 39.8901099,80 C17.8945055,80 7.10542736e-15,62.055978 7.10542736e-15,40 C7.10542736e-15,17.9438017 17.8945055,0 39.8901099,0 C61.8854945,0 79.7802198,17.9438017 79.7802198,40 C79.7802198,49.3630854 76.487033,58.4698623 70.507033,65.6418733 C70.0013187,66.2488154 69.1,66.3299174 68.4947253,65.8219284 C67.8894505,65.3146006 67.809011,64.4112397 68.3151648,63.8042975 C73.8661538,57.1464463 76.9230769,48.6926722 76.9230769,40 C76.9230769,19.5237466 60.3101099,2.86501377 39.8901099,2.86501377 C19.4698901,2.86501377 2.85714286,19.5237466 2.85714286,40 C2.85714286,56.8330588 14.0842159,71.0861962 29.4241543,75.6252388 L31.8239121,50.3336198 L28.5718242,46.7851901 C28.4977582,46.6888815 28.4417143,46.5806722 28.4056703,46.4654105 L27.6076484,43.9325179 L25.2834725,43.9325179 L25.2834725,52.1533444 C25.2834725,53.8556033 23.906989,55.2358788 22.2091868,55.2358788 L15.7713846,55.2358788 C14.0735824,55.2358788 12.6973187,53.8556033 12.6973187,52.1533444 L12.6973187,47.0152727 L10.6476484,47.0152727 C8.94984615,47.0152727 7.57336264,45.6352176 7.57336264,43.9325179 L7.57336264,33.6568154 C7.57336264,31.9541157 8.94984615,30.5740606 10.6476484,30.5740606 L12.6973187,30.5740606 L12.6973187,25.4362094 C12.6973187,23.73373 14.0735824,22.3534545 15.7713846,22.3534545 L22.2091868,22.3534545 C23.906989,22.3534545 25.2834725,23.73373 25.2834725,25.4362094 L25.2834725,33.6568154 L28.3577582,33.6568154 L28.3577582,29.6433719 C28.3577582,27.9503691 29.6775385,26.5015537 31.3654505,26.4645289 C32.1817143,26.4466777 32.9212747,26.758303 33.4814945,27.2651901 C34.0265495,26.7728485 34.7410549,26.4636474 35.5309451,26.4636474 C36.3208352,26.4636474 37.0355604,26.7721873 37.5803956,27.2651901 C38.1254505,26.7728485 38.8401758,26.4636474 39.6300659,26.4636474 C40.419956,26.4636474 41.1344615,26.7721873 41.6795165,27.2651901 C42.2245714,26.7728485 42.9390769,26.4636474 43.7291868,26.4636474 C45.0632527,26.4636474 46.1900659,27.3260165 46.6144615,28.5189642 L46.7118242,28.5189642 C49.6608352,28.5189642 52.3094066,30.3287713 53.3880879,33.0809477 L53.6138022,33.6568154 L56.1731429,33.6568154 L56.1731429,25.4362094 C56.1731429,23.73373 57.5494066,22.3534545 59.2472088,22.3534545 L65.685011,22.3534545 C67.383033,22.3534545 68.7592967,23.73373 68.7592967,25.4362094 L68.7592967,30.5740606 L70.8087473,30.5740606 C72.5067692,30.5740606 73.883033,31.9541157 73.883033,33.6568154 L73.883033,43.9325179 C73.883033,45.6352176 72.5067692,47.0152727 70.8087473,47.0152727 L68.7592967,47.0152727 L68.7592967,52.1533444 C68.7592967,53.8556033 67.383033,55.2358788 65.685011,55.2358788 L59.2472088,55.2358788 C57.5494066,55.2358788 56.1731429,53.8556033 56.1731429,52.1533444 L56.1731429,43.9325179 L53.7491868,43.9325179 C53.5390769,44.5306446 53.1933626,45.0772011 52.7017143,45.500562 L47.5953407,50.3336198 C47.4531429,50.4561543 47.3784176,50.6406171 47.3977582,50.8286061 L48.5056703,62.5035372 C48.5577582,63.0187989 48.2155604,63.4915262 47.7102857,63.5997355 C47.7034725,63.6012782 47.6968791,63.6026006 47.6900659,63.6041433 C47.0984176,63.7313058 46.5276484,63.3167603 46.4665495,62.7129036 L45.3584176,51.0340055 C45.2735824,50.1769256 45.6111648,49.3326281 46.2628132,48.7728485 L51.3685275,43.9406722 C51.723033,43.6347769 51.926989,43.1906997 51.926989,42.7210579 L51.926989,35.0622149 C51.926989,34.9740606 51.9056703,34.8850248 51.8656703,34.8034821 L51.4801758,33.8326832 C50.7155604,31.8813884 48.8867692,30.610865 46.8032527,30.5753829 L46.8032527,33.8459063 C47.9929231,34.2716915 48.8527033,35.4016088 48.8527033,36.7395702 L48.8527033,40.4237576 C48.8527033,40.9689917 48.6368791,41.4919669 48.2522637,41.8774215 L46.8032527,43.3304242 C46.4223736,43.7138953 45.8933626,43.9325179 45.3544615,43.9325179 L29.7566593,43.9325179 L30.3043516,45.672022 L33.6924835,49.3963196 C33.8511648,49.6034821 33.9258901,49.8624353 33.9019341,50.1229311 L31.4391492,76.1595912 C34.1543894,76.7975127 36.9836837,77.1349862 39.8901099,77.1349862 C42.8500739,77.1349862 45.7735254,76.7843426 48.6074847,76.0987198 L47.7279121,70.188584 C47.6338462,69.6790523 47.9362637,69.1800992 48.430989,69.0304573 C48.4375824,69.0284738 48.443956,69.0264904 48.4507692,69.0245069 C49.0301099,68.8493003 49.632967,69.2153609 49.7430769,69.8121653 L50.5953985,75.558404 Z M65.7014066,67.4653444 C66.5359121,67.4653444 67.2123956,68.1436915 67.2123956,68.9804959 C67.2123956,69.8173003 66.5359121,70.4956474 65.7014066,70.4956474 C64.8669011,70.4956474 64.1904176,69.8173003 64.1904176,68.9804959 C64.1904176,68.1436915 64.8669011,67.4653444 65.7014066,67.4653444 Z M48.0775604,65.2173664 C48.6966813,65.2173664 49.1984396,65.7205069 49.1984396,66.3413333 C49.1984396,66.9621598 48.6966813,67.4653003 48.0775604,67.4653003 C47.4584396,67.4653003 46.9566813,66.9621598 46.9566813,66.3413333 C46.9566813,65.7205069 47.4584396,65.2173664 48.0775604,65.2173664 Z M71.8335824,43.9325179 L71.8335824,33.6568154 C71.8335824,33.090865 71.3744615,32.629157 70.8087473,32.629157 L68.7592967,32.629157 L68.7592967,44.9601763 L70.8087473,44.9601763 C71.3744615,44.9601763 71.8335824,44.4984683 71.8335824,43.9325179 Z M66.7098462,52.1533444 L66.7098462,25.4362094 C66.7098462,24.8700386 66.2507253,24.408551 65.685011,24.408551 L59.2472088,24.408551 C58.6817143,24.408551 58.2225934,24.8700386 58.2225934,25.4362094 L58.2225934,52.1533444 C58.2225934,52.7192948 58.6817143,53.1807824 59.2472088,53.1807824 L65.685011,53.1807824 C66.2507253,53.1807824 66.7098462,52.7192948 66.7098462,52.1533444 Z M53.9766593,41.8774215 L56.1731429,41.8774215 L56.1731429,35.7119118 L53.9766593,35.7119118 L53.9766593,41.8774215 Z M46.8032527,40.4244187 L46.8032527,36.7395702 C46.8032527,36.6097631 46.7727033,36.4878898 46.7274286,36.3728485 C46.5377582,37.2385234 45.9808352,37.9591846 45.2313846,38.3845289 C45.1628132,38.4248595 45.0927033,38.463427 45.0212747,38.4989091 C44.9566593,38.5297631 44.8913846,38.5570909 44.8232527,38.5833168 C44.7003956,38.6322424 44.5735824,38.6701488 44.4423736,38.7025455 C44.3968791,38.7137851 44.3527033,38.7270083 44.3067692,38.7358237 C44.2834725,38.7404518 44.2621538,38.7486061 44.237978,38.752573 C44.1672088,38.7638127 44.097978,38.7578623 44.0285275,38.7638127 C43.9291868,38.7739504 43.8318242,38.7946667 43.7291868,38.7946667 C43.6968791,38.7946667 43.6685275,38.7867328 43.6375385,38.7854105 C43.5509451,38.783427 43.466989,38.7699835 43.3808352,38.7598457 C43.2513846,38.7444187 43.1232527,38.7276694 42.9986374,38.6970358 C42.9149011,38.6763196 42.8357802,38.6487713 42.7542418,38.620562 C42.6349011,38.580011 42.5188571,38.5363747 42.4061099,38.4823802 C42.3239121,38.4433719 42.2458901,38.3992948 42.1685275,38.3532342 C42.0636923,38.2902039 41.9658901,38.223427 41.8702857,38.1504793 C41.8283077,38.1176419 41.7788571,38.0949421 41.7381978,38.0601212 C41.7175385,38.0433719 41.6981978,38.0261818 41.6781978,38.008551 C41.6188571,38.0621047 41.5494066,38.1044187 41.4858901,38.1524628 C41.4212747,38.2020496 41.3606154,38.2520771 41.2931429,38.2963747 C41.1970989,38.3591846 41.0944615,38.4107548 40.9911648,38.4616639 C40.9223736,38.4969256 40.8577582,38.5357135 40.7863297,38.564584 C40.6667692,38.6128485 40.5421538,38.6454656 40.416,38.6796253 C40.3524835,38.6970358 40.2918242,38.7203967 40.226989,38.7338402 C40.0335824,38.7719669 39.8349011,38.7946667 39.6300659,38.7946667 C39.4252308,38.7946667 39.2265495,38.7719669 39.0335824,38.7351625 C38.9680879,38.721719 38.906989,38.6970358 38.8421538,38.6796253 C38.7166593,38.6470083 38.5933626,38.6139504 38.4751209,38.5652452 C38.4023736,38.5357135 38.3370989,38.4969256 38.266989,38.4616639 C38.165011,38.4107548 38.0621538,38.3598457 37.9667692,38.2983581 C37.897978,38.254281 37.8366593,38.2020496 37.772044,38.1524628 C37.7085275,38.102876 37.639956,38.0621047 37.5803956,38.008551 C37.5210549,38.0621047 37.4524835,38.1044187 37.388967,38.1524628 C37.3256703,38.2020496 37.2636923,38.2533994 37.1949011,38.297697 C37.1001758,38.3591846 36.9975385,38.4092121 36.8946813,38.4607824 C36.8252308,38.4958237 36.759956,38.5343912 36.6872088,38.564584 C36.568967,38.6128485 36.4443516,38.6448044 36.3201758,38.678303 C36.2555604,38.6963747 36.1949011,38.7203967 36.1280879,38.7338402 C35.9346813,38.7719669 35.7357802,38.7946667 35.5309451,38.7946667 C35.3263297,38.7946667 35.1274286,38.7719669 34.9338022,38.7338402 C34.8678681,38.7203967 34.8085275,38.6963747 34.745011,38.6796253 C34.6197363,38.6470083 34.4942418,38.6128485 34.3746813,38.564584 C34.3041319,38.5357135 34.239956,38.4969256 34.1713846,38.4627658 C34.0680879,38.4107548 33.9636923,38.3598457 33.8678681,38.297697 C33.8003956,38.2533994 33.7390769,38.2024904 33.6749011,38.1537851 C33.6116044,38.1050799 33.5421538,38.0629862 33.4828132,38.0094325 C33.4628132,38.0275041 33.4434725,38.0433719 33.4225934,38.0607824 C33.3821538,38.0962645 33.3327033,38.118303 33.2900659,38.1511405 C33.1944615,38.2247493 33.0973187,38.2902039 32.9944615,38.3519118 C32.9151209,38.3992948 32.8351209,38.4442534 32.7516044,38.4843636 C32.6436923,38.5357135 32.5307253,38.5786887 32.416,38.6181377 C32.3300659,38.6470083 32.2458901,38.6763196 32.1570989,38.6983581 C32.0397363,38.7270083 31.9190769,38.7430964 31.7955604,38.7578623 C31.7034725,38.768 31.6122637,38.7827658 31.517978,38.7854105 C31.4894066,38.7867328 31.4621538,38.7946667 31.432044,38.7946667 C31.3311648,38.7946667 31.2364396,38.7739504 31.1375385,38.7644738 C31.0663297,38.7578623 30.9955604,38.7644738 30.9234725,38.752573 C30.9021538,38.7486061 30.8834725,38.7404518 30.8621538,38.7358237 C30.7929231,38.7223802 30.7267692,38.7003416 30.6595165,38.6831515 C30.5454505,38.6529587 30.4324835,38.6221047 30.3252308,38.5786887 C30.2291868,38.5418843 30.1377582,38.494281 30.0456703,38.4475592 C29.9883077,38.4167052 29.9309451,38.3887163 29.8755604,38.3552176 C28.9716044,37.8172562 28.3577582,36.8405069 28.3577582,35.7119118 L25.2834725,35.7119118 L25.2834725,41.8774215 L45.3544615,41.8774215 L46.8032527,40.4244187 Z M30.4072088,29.5464022 L30.4072088,35.6010579 C30.4072088,35.9915813 30.5986374,36.3448595 30.8755604,36.550259 C30.9041319,36.5709752 30.9309451,36.5936749 30.963033,36.6097631 C31.0177582,36.6419394 31.0777582,36.6593499 31.1375385,36.6787438 C31.2023736,36.6994601 31.2691868,36.7142259 31.3386374,36.7201763 C31.4239121,36.7276694 31.5061099,36.7201763 31.5874286,36.7073939 C31.6441319,36.6987989 31.7028132,36.6919669 31.7557802,36.6738953 C31.8397363,36.6459063 31.9157802,36.5998457 31.9905055,36.550259 C32.0335824,36.5216088 32.0817143,36.4980275 32.1197363,36.4632066 C32.1924835,36.3948871 32.2458901,36.3142259 32.296,36.2311405 C32.3173187,36.1949972 32.3478681,36.1661267 32.3652308,36.1273388 C32.4228132,35.9977521 32.4566593,35.857146 32.4566593,35.7119118 L32.4566593,29.5464022 C32.4566593,28.9804518 31.9977582,28.5189642 31.432044,28.5189642 C30.8663297,28.5189642 30.4072088,28.9804518 30.4072088,29.5464022 Z M34.5063297,29.5464022 L34.5063297,35.7119118 C34.5063297,36.2780826 34.9654505,36.7395702 35.5309451,36.7395702 C36.0966593,36.7395702 36.5557802,36.2780826 36.5557802,35.7119118 L36.5557802,29.5464022 C36.5557802,28.9804518 36.0966593,28.5189642 35.5309451,28.5189642 C34.9654505,28.5189642 34.5063297,28.9804518 34.5063297,29.5464022 Z M38.6052308,29.5464022 L38.6052308,35.7119118 C38.6052308,36.2780826 39.0643516,36.7395702 39.6300659,36.7395702 C40.1955604,36.7395702 40.6546813,36.2780826 40.6546813,35.7119118 L40.6546813,29.5464022 C40.6546813,28.9804518 40.1955604,28.5189642 39.6300659,28.5189642 C39.0643516,28.5189642 38.6052308,28.9804518 38.6052308,29.5464022 Z M42.7043516,29.5464022 L42.7043516,35.7119118 C42.7043516,35.857146 42.7381978,35.9977521 42.7942418,36.1260165 C42.8118242,36.1650248 42.8423736,36.1934545 42.8643516,36.2295978 C42.9142418,36.3133444 42.9678681,36.3948871 43.0406154,36.4618843 C43.0790769,36.4980275 43.1274286,36.5209477 43.1711648,36.550259 C43.2452308,36.5998457 43.3214945,36.6452452 43.4034725,36.672573 C43.4581978,36.6915262 43.5184176,36.6987989 43.5775385,36.7073939 C43.6568791,36.7201763 43.7384176,36.7261267 43.8210549,36.7201763 C43.8918242,36.7142259 43.9586374,36.6994601 44.0239121,36.6787438 C44.0832527,36.6604518 44.1434725,36.6432617 44.1973187,36.6110854 C44.2294066,36.5936749 44.2566593,36.5709752 44.286989,36.550259 C44.563033,36.3448595 44.7538022,35.9922424 44.7538022,35.6021598 L44.7538022,29.5464022 C44.7538022,28.9804518 44.2946813,28.5189642 43.7291868,28.5189642 C43.1634725,28.5189642 42.7043516,28.9804518 42.7043516,29.5464022 Z M23.234022,52.1533444 L23.234022,25.4362094 C23.234022,24.8700386 22.7749011,24.408551 22.2091868,24.408551 L15.7713846,24.408551 C15.2058901,24.408551 14.7467692,24.8700386 14.7467692,25.4362094 L14.7467692,52.1533444 C14.7467692,52.7192948 15.2058901,53.1807824 15.7713846,53.1807824 L22.2091868,53.1807824 C22.7749011,53.1807824 23.234022,52.7192948 23.234022,52.1533444 Z M12.6973187,44.9601763 L12.6973187,32.629157 L10.6476484,32.629157 C10.0819341,32.629157 9.62281319,33.090865 9.62281319,33.6568154 L9.62281319,43.9325179 C9.62281319,44.4984683 10.0819341,44.9601763 10.6476484,44.9601763 L12.6973187,44.9601763 Z" id="Combined-Shape" fill="#FAD815"></path></g></svg>